<svg width="285" height="235" viewBox="0 0 285 235" fill="none" xmlns="http://www.w3.org/2000/svg">
<mask id="path-1-inside-1_1025_325" fill="white">
<path d="M270.76 0C278.624 0 285 6.37575 285 14.2402V220.761C285 228.625 278.624 235 270.76 235H14.2402C6.37583 235 0.000118745 228.625 0 220.761V14.2402C0 6.37575 6.37575 0 14.2402 0H178.346C181.133 0 183.719 1.45032 185.173 3.82829L189.66 11.1717C191.114 13.5497 193.7 15 196.487 15H234.293C237.198 15 239.875 13.4248 241.286 10.885L245.047 4.11497C246.458 1.57518 249.135 0 252.04 0H270.76Z"/>
</mask>
<path d="M270.76 0C278.624 0 285 6.37575 285 14.2402V220.761C285 228.625 278.624 235 270.76 235H14.2402C6.37583 235 0.000118745 228.625 0 220.761V14.2402C0 6.37575 6.37575 0 14.2402 0H178.346C181.133 0 183.719 1.45032 185.173 3.82829L189.66 11.1717C191.114 13.5497 193.7 15 196.487 15H234.293C237.198 15 239.875 13.4248 241.286 10.885L245.047 4.11497C246.458 1.57518 249.135 0 252.04 0H270.76Z" fill="#4F07B6"/>
<path d="M285 220.761L287 220.761V220.761H285ZM270.76 235L270.76 237L270.76 237L270.76 235ZM0 220.761L-2 220.761L-2 220.761L0 220.761ZM245.047 4.11497L243.299 3.14371L245.047 4.11497ZM241.286 10.885L243.034 11.8563L241.286 10.885ZM189.66 11.1717L191.367 10.1288L189.66 11.1717ZM185.173 3.82829L183.466 4.87122L185.173 3.82829ZM270.76 0V2C277.52 2 283 7.48032 283 14.2402H285H287C287 5.27118 279.729 -2 270.76 -2V0ZM285 14.2402H283V220.761H285H287V14.2402H285ZM285 220.761L283 220.761C283 227.52 277.52 233 270.76 233L270.76 235L270.76 237C279.729 237 287 229.73 287 220.761L285 220.761ZM270.76 235V233H14.2402V235V237H270.76V235ZM14.2402 235V233C7.48025 233 2.0001 227.52 2 220.761L0 220.761L-2 220.761C-1.99986 229.73 5.2714 237 14.2402 237V235ZM0 220.761H2V14.2402H0H-2V220.761H0ZM0 14.2402H2C2 7.48032 7.48032 2 14.2402 2V0V-2C5.27118 -2 -2 5.27118 -2 14.2402H0ZM14.2402 0V2H178.346V0V-2H14.2402V0ZM185.173 3.82829L183.466 4.87122L187.954 12.2146L189.66 11.1717L191.367 10.1288L186.879 2.78536L185.173 3.82829ZM196.487 15V17H234.293V15V13H196.487V15ZM241.286 10.885L243.034 11.8563L246.795 5.08623L245.047 4.11497L243.299 3.14371L239.538 9.91377L241.286 10.885ZM252.04 0V2H270.76V0V-2H252.04V0ZM245.047 4.11497L246.795 5.08623C247.854 3.18139 249.861 2 252.04 2V0V-2C248.409 -2 245.062 -0.0310217 243.299 3.14371L245.047 4.11497ZM234.293 15V17C237.924 17 241.271 15.031 243.034 11.8563L241.286 10.885L239.538 9.91377C238.479 11.8186 236.472 13 234.293 13V15ZM189.66 11.1717L187.954 12.2146C189.77 15.1871 193.003 17 196.487 17V15V13C194.396 13 192.457 11.9123 191.367 10.1288L189.66 11.1717ZM178.346 0V2C180.437 2 182.376 3.08774 183.466 4.87122L185.173 3.82829L186.879 2.78536C185.063 -0.187104 181.83 -2 178.346 -2V0Z" fill="#4F07B6" mask="url(#path-1-inside-1_1025_325)"/>
</svg>
