<svg width="18" height="22" viewBox="0 0 18 22" fill="none" xmlns="http://www.w3.org/2000/svg">
<path d="M14.7973 11.5804C14.8081 10.7457 15.0298 9.92736 15.4418 9.20141C15.8538 8.47546 16.4428 7.86552 17.1539 7.42835C16.7021 6.78318 16.1062 6.25224 15.4134 5.87769C14.7205 5.50314 13.9499 5.29529 13.1627 5.27066C11.4835 5.0944 9.85552 6.2755 8.99981 6.2755C8.12754 6.2755 6.81004 5.28816 5.39131 5.31735C4.47364 5.347 3.57929 5.61386 2.79541 6.09191C2.01154 6.56997 1.36486 7.24293 0.918393 8.04522C-1.01561 11.3936 0.426982 16.3147 2.27959 19.0213C3.20649 20.3467 4.28977 21.8271 5.70722 21.7746C7.09428 21.7171 7.61232 20.8901 9.28662 20.8901C10.9454 20.8901 11.4314 21.7746 12.8776 21.7412C14.366 21.7171 15.3038 20.41 16.1981 19.0721C16.8641 18.1277 17.3766 17.084 17.7166 15.9796C16.8518 15.6138 16.1139 15.0017 15.5948 14.2194C15.0757 13.4371 14.7983 12.5193 14.7973 11.5804Z" fill="white"/>
<path d="M12.0657 3.49062C12.8772 2.51641 13.277 1.26423 13.1802 0C11.9404 0.13022 10.7951 0.722779 9.97265 1.65961C9.57051 2.11728 9.26251 2.64971 9.06627 3.22648C8.87002 3.80325 8.78938 4.41304 8.82894 5.021C9.44908 5.02739 10.0626 4.89297 10.6232 4.62788C11.1839 4.3628 11.6771 3.97395 12.0657 3.49062Z" fill="white"/>
</svg>
