<svg width="19" height="23" viewBox="0 0 19 23" fill="none" xmlns="http://www.w3.org/2000/svg">
<path d="M15.3877 12.0424C15.3988 11.1745 15.6294 10.3234 16.0579 9.56852C16.4863 8.81361 17.0988 8.17934 17.8382 7.72472C17.3685 7.05382 16.7488 6.5017 16.0283 6.1122C15.3078 5.72271 14.5065 5.50657 13.6878 5.48096C11.9416 5.29766 10.2487 6.52588 9.35885 6.52588C8.45178 6.52588 7.08172 5.49916 5.60638 5.52951C4.65209 5.56034 3.72207 5.83784 2.90691 6.33497C2.09176 6.8321 1.41929 7.53191 0.955007 8.36621C-1.0561 11.8482 0.444008 16.9656 2.37052 19.7802C3.3344 21.1584 4.46089 22.698 5.9349 22.6434C7.3773 22.5835 7.91601 21.7236 9.6571 21.7236C11.382 21.7236 11.8874 22.6434 13.3914 22.6087C14.9391 22.5835 15.9143 21.2243 16.8444 19.833C17.5369 18.851 18.0698 17.7656 18.4234 16.6171C17.5242 16.2368 16.7568 15.6002 16.217 14.7867C15.6771 13.9732 15.3887 13.0188 15.3877 12.0424Z" fill="black"/>
<path d="M12.547 3.62989C13.3909 2.61682 13.8067 1.31468 13.706 0C12.4167 0.135415 11.2258 0.751614 10.3705 1.72582C9.95229 2.20174 9.63201 2.75542 9.42793 3.35521C9.22386 3.95499 9.13999 4.58911 9.18114 5.22132C9.82601 5.22796 10.464 5.08818 11.047 4.81252C11.63 4.53686 12.1429 4.1325 12.547 3.62989Z" fill="black"/>
</svg>
