<svg width="488" height="341" viewBox="0 0 488 341" fill="none" xmlns="http://www.w3.org/2000/svg">
<mask id="path-1-inside-1_681_3775" fill="white">
<path d="M473.697 0C481.596 0 488 6.40357 488 14.3027V326.697C488 334.596 481.596 341 473.697 341H14.3027C6.40357 341 0 334.596 0 326.697V14.3027C0 6.40357 6.40357 0 14.3027 0H309.041C310.949 0 312.743 0.907281 313.874 2.44388L327.202 20.5561C328.332 22.0927 330.126 23 332.034 23H404.772C406.787 23 408.668 21.9881 409.779 20.3063L421.41 2.69366C422.52 1.01186 424.401 0 426.416 0H473.697Z"/>
</mask>
<path d="M421.41 2.69366L416.403 -0.612679L421.41 2.69366ZM409.779 20.3063L414.786 23.6127L409.779 20.3063ZM327.202 20.5561L332.034 17L327.202 20.5561ZM313.874 2.44388L309.041 6L313.874 2.44388ZM473.697 0V6C478.283 6 482 9.71728 482 14.3027H488H494C494 3.08987 484.91 -6 473.697 -6V0ZM488 14.3027H482V326.697H488H494V14.3027H488ZM488 326.697H482C482 331.283 478.283 335 473.697 335V341V347C484.91 347 494 337.91 494 326.697H488ZM473.697 341V335H14.3027V341V347H473.697V341ZM14.3027 341V335C9.71728 335 6 331.283 6 326.697H0H-6C-6 337.91 3.08987 347 14.3027 347V341ZM0 326.697H6V14.3027H0H-6V326.697H0ZM0 14.3027H6C6 9.71728 9.71728 6 14.3027 6V0V-6C3.08987 -6 -6 3.08987 -6 14.3027H0ZM14.3027 0V6H309.041V0V-6H14.3027V0ZM313.874 2.44388L309.041 6L322.369 24.1122L327.202 20.5561L332.034 17L318.706 -1.11224L313.874 2.44388ZM332.034 23V29H404.772V23V17H332.034V23ZM409.779 20.3063L414.786 23.6127L426.416 6L421.41 2.69366L416.403 -0.612679L404.772 17L409.779 20.3063ZM426.416 0V6H473.697V0V-6H426.416V0ZM421.41 2.69366L426.416 6V6V0V-6C422.386 -6 418.624 -3.97628 416.403 -0.612679L421.41 2.69366ZM404.772 23V29C408.803 29 412.564 26.9763 414.786 23.6127L409.779 20.3063L404.772 17V23ZM327.202 20.5561L322.369 24.1122C324.63 27.1854 328.219 29 332.034 29V23V17V17L327.202 20.5561ZM309.041 0V6L313.874 2.44388L318.706 -1.11224C316.445 -4.18543 312.857 -6 309.041 -6V0Z" fill="#004A7A" mask="url(#path-1-inside-1_681_3775)"/>
</svg>
