<svg width="594" height="487" viewBox="0 0 594 487" fill="none" xmlns="http://www.w3.org/2000/svg">
<mask id="path-1-inside-1_681_3722" fill="white">
<path d="M581.829 0C588.551 0.000164924 594 5.44916 594 12.1709V474.829C594 481.551 588.551 487 581.829 487H12.1709C5.44906 487 1.64931e-05 481.551 0 474.829V12.1709C0.00022316 5.4492 5.4492 0.000211828 12.1709 0H422.871C425.182 0 427.287 1.32681 428.284 3.41129L439.369 26.5887C440.365 28.6732 442.471 30 444.781 30H505.066C507.455 30 509.616 28.583 510.569 26.3924L520.475 3.60757C521.428 1.41695 523.589 0 525.978 0H581.829Z"/>
</mask>
<path d="M581.829 0L581.829 -6H581.829V0ZM594 12.1709H600V12.1707L594 12.1709ZM594 474.829L600 474.829V474.829H594ZM581.829 487V493H581.829L581.829 487ZM12.1709 487L12.1707 493H12.1709V487ZM0 474.829H-6H0ZM0 12.1709L-6 12.1707V12.1709H0ZM12.1709 0V-6H12.1707L12.1709 0ZM520.475 3.60757L514.973 1.21514L520.475 3.60757ZM510.569 26.3924L505.066 24L510.569 26.3924ZM439.369 26.5887L433.956 29.1774L439.369 26.5887ZM428.284 3.41129L433.697 0.822584L428.284 3.41129ZM581.829 0L581.829 6C585.237 6.00008 588 8.76288 588 12.1711L594 12.1709L600 12.1707C600 2.13544 591.865 -5.99975 581.829 -6L581.829 0ZM594 12.1709H588V474.829H594H600V12.1709H594ZM594 474.829L588 474.829C588 478.237 585.237 481 581.829 481L581.829 487L581.829 493C591.865 493 600 484.865 600 474.829L594 474.829ZM581.829 487V481H12.1709V487V493H581.829V487ZM12.1709 487L12.1711 481C8.76265 481 6.00001 478.237 6 474.829H0H-6C-5.99998 484.865 2.13548 493 12.1707 493L12.1709 487ZM0 474.829H6V12.1709H0H-6V474.829H0ZM0 12.1709L6 12.1711C6.00011 8.76294 8.76296 6.00011 12.1711 6L12.1709 0L12.1707 -6C2.13544 -5.99968 -5.99967 2.13546 -6 12.1707L0 12.1709ZM12.1709 0V6H422.871V0V-6H12.1709V0ZM428.284 3.41129L422.871 6L433.956 29.1774L439.369 26.5887L444.781 24L433.697 0.822584L428.284 3.41129ZM444.781 30V36H505.066V30V24H444.781V30ZM510.569 26.3924L516.071 28.7849L525.978 6L520.475 3.60757L514.973 1.21514L505.066 24L510.569 26.3924ZM525.978 0V6H581.829V0V-6H525.978V0ZM520.475 3.60757L525.978 6V6V0V-6C521.2 -6 516.878 -3.1661 514.973 1.21514L520.475 3.60757ZM505.066 30V36C509.844 36 514.166 33.1661 516.071 28.7849L510.569 26.3924L505.066 24V30ZM439.369 26.5887L433.956 29.1774C435.95 33.3464 440.16 36 444.781 36V30V24V24L439.369 26.5887ZM422.871 0V6L428.284 3.41129L433.697 0.822584C431.703 -3.34638 427.492 -6 422.871 -6V0Z" fill="#004A7A" mask="url(#path-1-inside-1_681_3722)"/>
</svg>
