<svg width="60" height="60" viewBox="0 0 60 60" fill="none" xmlns="http://www.w3.org/2000/svg">
<circle cx="30" cy="30" r="28.5" transform="rotate(180 30 30)" fill="white" stroke="#4F07B6" stroke-width="3"/>
<path d="M12 28.5C11.1716 28.5 10.5 29.1716 10.5 30C10.5 30.8284 11.1716 31.5 12 31.5V30V28.5ZM48.0607 31.0607C48.6464 30.4749 48.6464 29.5251 48.0607 28.9393L38.5147 19.3934C37.9289 18.8076 36.9792 18.8076 36.3934 19.3934C35.8076 19.9792 35.8076 20.9289 36.3934 21.5147L44.8787 30L36.3934 38.4853C35.8076 39.0711 35.8076 40.0208 36.3934 40.6066C36.9792 41.1924 37.9289 41.1924 38.5147 40.6066L48.0607 31.0607ZM12 30V31.5L47 31.5V30V28.5L12 28.5V30Z" fill="#4F07B6"/>
</svg>
