<svg width="51" height="51" viewBox="0 0 51 51" fill="none" xmlns="http://www.w3.org/2000/svg">
<g clip-path="url(#clip0_1000_329)">
<rect x="-1.5" y="1.5" width="48" height="48" rx="24" transform="matrix(-1 0 0 1 48 0)" fill="white" stroke="#004A7A" stroke-width="3"/>
<path d="M11 27.3654C10.2459 27.3654 9.63461 26.7541 9.63461 26C9.63461 25.2459 10.2459 24.6346 11 24.6346V26V27.3654ZM40.9655 25.0345C41.4987 25.5677 41.4987 26.4323 40.9655 26.9655L32.2762 35.6548C31.743 36.188 30.8785 36.188 30.3452 35.6548C29.812 35.1215 29.812 34.257 30.3452 33.7238L38.069 26L30.3452 18.2762C29.812 17.743 29.812 16.8785 30.3452 16.3452C30.8785 15.812 31.743 15.812 32.2762 16.3452L40.9655 25.0345ZM11 26V24.6346H40V26V27.3654H11V26Z" fill="#004A7A"/>
</g>
<defs>
<clipPath id="clip0_1000_329">
<rect width="51" height="51" rx="25.5" fill="white"/>
</clipPath>
</defs>
</svg>
