<svg width="99" height="107" viewBox="0 0 99 107" fill="none" xmlns="http://www.w3.org/2000/svg">
<path d="M1.855 4.54855C0.679996 5.7478 0 7.61492 0 10.0329V96.2814C0 98.6994 0.679996 100.567 1.855 101.766L2.145 102.029L51.715 53.7178V52.577L2.145 4.2658L1.855 4.54855Z" fill="black"/>
<path d="M74.2198 69.8296L57.7148 53.7178V52.577L74.2398 36.4651L74.6098 36.6748L94.1798 47.5314C99.7648 50.6124 99.7648 55.6824 94.1798 58.7829L74.6098 69.62L74.2198 69.8296V69.8296Z" fill="black"/>
<path d="M71.6099 72.6201L54.7149 56.1474L4.85495 104.766C6.70995 106.667 9.73495 106.896 13.1749 104.995L71.6099 72.6201" fill="black"/>
<path d="M71.6099 33.6748L13.1749 1.29996C9.73495 -0.58179 6.70995 -0.352671 4.85495 1.54858L54.7149 50.1474L71.6099 33.6748Z" fill="black"/>
</svg>
