<svg width="65" height="65" viewBox="0 0 65 65" fill="none" xmlns="http://www.w3.org/2000/svg">
<path d="M46.0001 23L29.0001 36L28.0001 37C27.8259 37.1348 28.0294 36.7849 28.0001 37V39L27.0001 43C27.0046 43.0489 27.0323 42.9623 27.0001 43C26.9679 43.0377 27.0502 42.9956 27.0001 43C26.95 43.0044 27.0387 43.0315 27.0001 43C26.9615 42.9686 27.0046 43.0489 27.0001 43L25.0001 39L24.0001 35C23.9397 34.8158 23.9256 34.1792 24.0001 34C23.8252 34.0909 24.0747 33.8208 24.0001 34L42.0001 24L45.0001 22C45.4798 21.7273 46.4232 22.6609 46.0001 23Z" fill="#4F07B6"/>
<path d="M56 0H9C6.64922 0 4.66225 1.33775 3 3C1.33775 4.66225 0 6.64922 0 9V56C0 58.3508 1.33775 60.3377 3 62C4.66225 63.6623 6.64922 65 9 65H56C58.3508 65 60.3377 63.6623 62 62C63.6623 60.3377 65 58.3508 65 56V9C65 6.64922 63.6623 4.66225 62 3C60.3377 1.33775 58.3508 0 56 0ZM53 19L46 47C45.7009 48.3148 44.1707 48.8014 43 48L34 41L29 46C28.8011 46.1867 28.2631 45.9278 28 46C27.7369 46.0722 27.2664 46.0589 27 46C26.7336 45.9411 27.208 46.1765 27 46C26.792 45.8235 26.1016 45.2532 26 45L24 40L23 35L13 33C12.736 32.9424 12.1742 32.2066 12 32C11.8258 31.7934 12.0122 31.27 12 31C11.8452 31.2215 11.9878 30.73 12 31C12.1548 30.7785 12.7422 30.0813 13 30L50 17C51.4145 16.5051 53.3102 17.6298 53 19Z" fill="#4F07B6"/>
</svg>
