<svg width="65" height="65" viewBox="0 0 65 65" fill="none" xmlns="http://www.w3.org/2000/svg">
<path d="M57 0H8C5.80594 0 3.55144 0.448563 2 2C0.448563 3.55144 0 5.80594 0 8V57C0 59.1941 0.448563 61.4486 2 63C3.55144 64.5514 5.80594 65 8 65H57C59.1941 65 61.4486 64.5514 63 63C64.5514 61.4486 65 59.1941 65 57V8C65 5.80594 64.5514 3.55144 63 2C61.4486 0.448563 59.1941 0 57 0ZM48 34C48.2086 36.1648 56.5769 41.4746 56 45C55.7465 46.6126 52.3499 45.9319 50 46C47.8345 46.0926 45.9703 46.3915 45 46C43.4105 45.3781 39.0831 39.7932 38 40C35.534 40.5079 36.7131 45.6537 36 46C34.9167 46.5055 31.3136 46.1396 30 46C23.0878 44.8488 19.7543 39.9437 16 34C11.3685 26.7646 7.82409 21.6918 9 21C10.2431 20.3091 14.3811 19.9303 18 20C19.1062 20.0459 22.1704 28.6877 23 30C26.2717 35.2306 26.931 31.4619 27 31C27.8985 21.5769 26.3589 21.1847 25 21C25.9898 17.9589 33 19 33 19C33 19 35.1469 19.4001 36 20C36.3455 20.2059 36.0222 20.5802 36 23C35.8851 26.708 36.3645 32 38 32C39.2449 32.0476 40.3861 29.0429 42 26C43.4049 23.3052 44.5175 21.1839 45 21C45.5302 20.7924 47.7417 20.0459 50 20C52.2116 20 55.3785 20.5397 56 21C57.1759 22.0143 54.8882 25.3278 53 28C51.4812 30.2124 47.8153 32.4334 48 34Z" fill="#4F07B6"/>
</svg>
