<svg width="65" height="65" viewBox="0 0 65 65" fill="none" xmlns="http://www.w3.org/2000/svg">
<path d="M44.0002 22C41.3072 19.3059 37.7974 17.2995 34.0002 17C30.2029 16.7005 27.0821 17.7614 24.0002 20C20.9182 22.2386 17.8901 25.296 17.0002 29C16.1103 32.704 17.2716 36.6055 19.0002 40V42L18.0002 48L24.0002 47H26.0002C29 48.4904 32.694 49.5374 36.0002 49C39.3064 48.4626 41.6268 46.3638 44.0002 44C46.9856 41.014 48.9847 37.2226 49.0002 33C49.0156 28.7774 46.9637 25.0078 44.0002 22ZM44.0002 40C43.225 41.2209 41.5393 42.6292 40.0002 43C37.304 43.6554 33.1492 42.7975 28.0002 38C23.4728 33.8055 22.7156 29.7714 23.0002 27C23.1575 25.4233 23.8955 24.9325 25.0002 24C25.1751 23.8517 25.7773 23.0543 26.0002 23C26.223 22.9457 26.7766 22.9487 27.0002 23C26.8232 22.8541 27.2237 23.0513 27.0002 23C27.1771 23.1459 27.9073 23.7903 28.0002 24L29.0002 28C29.1093 28.2426 29.0325 28.7359 29.0002 29C28.9678 29.2641 29.1646 28.7909 29.0002 29L28.0002 30C27.8238 30.2242 28.0235 30.7156 28.0002 31C27.9769 31.2844 27.8626 31.75 28.0002 32C28.472 32.8239 29.7457 33.869 31.0002 35C32.4082 36.2696 34.0116 37.5993 35.0002 38C35.2653 38.1061 35.7208 38.0593 36.0002 38C36.2795 37.9407 36.8011 38.2047 37.0002 38V37C37.1888 36.814 37.7436 36.0658 38.0002 36C38.2567 35.9342 38.7454 35.9277 39.0002 36L43.0002 37C43.2191 37.0668 42.8331 37.8435 43.0002 38C43.1672 38.1565 43.9192 37.7859 44.0002 38C44.0812 38.2141 44.0218 38.7721 44.0002 39C43.9786 39.2279 44.12 39.805 44.0002 40Z" fill="#4F07B6"/>
<path d="M56 0H9C6.64922 0 4.66225 1.33775 3 3C1.33775 4.66225 0 6.64922 0 9V56C0 58.3508 1.33775 60.3377 3 62C4.66225 63.6623 6.64922 65 9 65H56C58.3508 65 60.3377 63.6623 62 62C63.6623 60.3377 65 58.3508 65 56V9C65 6.64922 63.6623 4.66225 62 3C60.3377 1.33775 58.3508 0 56 0ZM53 33C52.891 36.3741 51.7129 40.091 50 43C48.2871 45.909 45.8977 48.2681 43 50C40.1023 51.7319 36.3733 51.869 33 52C29.6267 52.131 27.0233 51.5019 24 50L13 53C12.8458 53.0359 13.1476 53.0573 13 53C12.8524 52.9427 13.0895 52.1306 13 52C12.9396 51.9133 12.021 52.1035 12 52C11.978 52.1033 11.979 51.8965 12 52L15 41C13.6052 38.2612 12.0474 36.0731 12 33C11.9526 29.9269 12.6904 26.7805 14 24C15.3096 21.2195 17.6005 18.9206 20 17C22.3995 15.0794 25.0002 13.6689 28 13C30.9998 12.3311 34.0119 12.2807 37 13C39.9881 13.7193 42.6332 15.0393 45 17C47.3668 18.9607 49.7374 21.1978 51 24C52.2626 26.8022 53.0991 29.9281 53 33Z" fill="#4F07B6"/>
</svg>
