<svg width="65" height="65" viewBox="0 0 65 65" fill="none" xmlns="http://www.w3.org/2000/svg">
<path d="M44.0474 22.0195C41.3801 19.3415 37.9036 17.3471 34.1424 17.0494C30.3812 16.7517 27.2901 17.8063 24.2374 20.0315C21.1847 22.2566 18.1853 25.2958 17.3039 28.9776C16.4225 32.6595 17.5727 36.5376 19.2849 39.9118V41.8999L18.2944 47.864L24.2374 46.87H26.2184C29.1897 48.3514 32.8486 49.3922 36.1234 48.858C39.3982 48.3238 41.6965 46.2376 44.0474 43.8879C47.0044 40.9197 48.9846 37.1511 48.9999 32.9537C49.0152 28.7563 46.9827 25.0093 44.0474 22.0195ZM44.0474 39.9118C43.2796 41.1254 41.6099 42.5253 40.0854 42.8939C37.4148 43.5454 33.2995 42.6926 28.1994 37.9238C23.715 33.7544 22.965 29.7444 23.2469 26.9896C23.4027 25.4223 24.1337 24.9345 25.2279 24.0075C25.4012 23.8601 25.9977 23.0675 26.2184 23.0135C26.4391 22.9596 26.9875 22.9626 27.2089 23.0135C27.0337 22.8685 27.4303 23.0645 27.2089 23.0135C27.3842 23.1586 28.1074 23.7991 28.1994 24.0075L29.1899 27.9836C29.298 28.2248 29.222 28.7151 29.1899 28.9776C29.1579 29.2401 29.3528 28.7697 29.1899 28.9776L28.1994 29.9716C28.0247 30.1945 28.2225 30.683 28.1994 30.9657C28.1763 31.2483 28.0632 31.7112 28.1994 31.9597C28.6668 32.7787 29.9283 33.8175 31.1709 34.9417C32.5656 36.2037 34.1537 37.5255 35.1329 37.9238C35.3955 38.0293 35.8467 37.9828 36.1234 37.9238C36.4001 37.8648 36.9167 38.1273 37.1139 37.9238V36.9298C37.3007 36.7449 37.8503 36.0012 38.1044 35.9358C38.3585 35.8704 38.8425 35.8639 39.0949 35.9358L43.0569 36.9298C43.2737 36.9962 42.8915 37.7683 43.0569 37.9238C43.2224 38.0793 43.9672 37.711 44.0474 37.9238C44.1276 38.1366 44.0688 38.6913 44.0474 38.9178C44.026 39.1443 44.1661 39.718 44.0474 39.9118Z" fill="#3E92A3"/>
<path d="M56 0H9C6.64922 0 4.66225 1.33775 3 3C1.33775 4.66225 0 6.64922 0 9V56C0 58.3508 1.33775 60.3377 3 62C4.66225 63.6623 6.64922 65 9 65H56C58.3508 65 60.3377 63.6623 62 62C63.6623 60.3377 65 58.3508 65 56V9C65 6.64922 63.6623 4.66225 62 3C60.3377 1.33775 58.3508 0 56 0ZM53 33C52.891 36.3741 51.7129 40.091 50 43C48.2871 45.909 45.8977 48.2681 43 50C40.1023 51.7319 36.3733 51.869 33 52C29.6267 52.131 27.0233 51.5019 24 50L13 53C12.8458 53.0359 13.1476 53.0573 13 53C12.8524 52.9427 13.0895 52.1306 13 52C12.9396 51.9133 12.021 52.1035 12 52C11.978 52.1033 11.979 51.8965 12 52L15 41C13.6052 38.2612 12.0474 36.0731 12 33C11.9526 29.9269 12.6904 26.7805 14 24C15.3096 21.2195 17.6005 18.9206 20 17C22.3995 15.0794 25.0002 13.6689 28 13C30.9998 12.3311 34.0119 12.2807 37 13C39.9881 13.7193 42.6332 15.0393 45 17C47.3668 18.9607 49.7374 21.1978 51 24C52.2626 26.8022 53.0991 29.9281 53 33Z" fill="#3E92A3"/>
</svg>
